<?xml version="1.0" standalone="no"?><!DOCTYPE svg PUBLIC "-//W3C//DTD SVG 1.1//EN" "http://www.w3.org/Graphics/SVG/1.1/DTD/svg11.dtd"><svg class="icon" width="200px" height="200.00px" viewBox="0 0 1024 1024" version="1.1" xmlns="http://www.w3.org/2000/svg"><path d="M137.365854 866.653659c-27.473171 0-49.95122-22.478049-49.95122-49.95122v-599.414634c0-27.473171 22.478049-49.95122 49.95122-49.95122h74.926829c27.473171 0 49.95122 22.478049 49.951219 49.95122v599.414634c0 27.473171-22.478049 49.95122-49.951219 49.95122H137.365854z" fill="#FFFFFF" /><path d="M212.292683 891.629268H137.365854c-42.458537 0-74.926829-32.468293-74.92683-74.926829v-599.414634c0-42.458537 32.468293-74.926829 74.92683-74.926829h74.926829c42.458537 0 74.926829 32.468293 74.926829 74.926829v599.414634c0 42.458537-32.468293 74.926829-74.926829 74.926829z m-74.926829-699.317073c-14.985366 0-24.97561 9.990244-24.97561 24.97561v599.414634c0 14.985366 9.990244 24.97561 24.97561 24.97561h74.926829c14.985366 0 24.97561-9.990244 24.97561-24.97561v-599.414634c0-14.985366-9.990244-24.97561-24.97561-24.97561H137.365854z" fill="#428BF9" /><path d="M212.292683 432.078049c0 4.995122-4.995122 7.492683-9.990244 4.995122l-24.97561-19.980488c-2.497561-2.497561-4.995122-2.497561-7.492683 0l-24.975609 19.980488c-4.995122 2.497561-9.990244 0-9.990244-4.995122V299.707317c0-2.497561 2.497561-4.995122 4.995122-4.995122h62.439024c7.492683-2.497561 9.990244 0 9.990244 4.995122v132.370732z" fill="#428BF9" /><path d="M412.097561 866.653659c-27.473171 0-49.95122-22.478049-49.95122-49.95122v-599.414634c0-27.473171 22.478049-49.95122 49.95122-49.95122h74.926829c27.473171 0 49.95122 22.478049 49.95122 49.95122v599.414634c0 27.473171-22.478049 49.95122-49.95122 49.95122h-74.926829z" fill="#FFFFFF" /><path d="M487.02439 891.629268h-74.926829c-42.458537 0-74.926829-32.468293-74.926829-74.926829v-599.414634c0-42.458537 32.468293-74.926829 74.926829-74.926829h74.926829c42.458537 0 74.926829 32.468293 74.92683 74.926829v599.414634c0 42.458537-32.468293 74.926829-74.92683 74.926829z m-74.926829-699.317073c-14.985366 0-24.97561 9.990244-24.97561 24.97561v599.414634c0 14.985366 9.990244 24.97561 24.97561 24.97561h74.926829c14.985366 0 24.97561-9.990244 24.97561-24.97561v-599.414634c0-14.985366-9.990244-24.97561-24.97561-24.97561h-74.926829z" fill="#555555" /><path d="M829.190244 869.15122c-12.487805 2.497561-27.473171-4.995122-29.970732-17.482927L629.385366 224.780488c-2.497561-12.487805 4.995122-27.473171 17.482927-29.970732l119.882927-32.468293c12.487805-2.497561 27.473171 4.995122 29.970731 17.482927l167.336586 626.887805c2.497561 12.487805-4.995122 27.473171-17.482927 29.970732l-117.385366 32.468293z" fill="#428BF9" opacity=".5" /><path d="M831.687805 891.629268c-12.487805 0-24.97561-2.497561-37.463415-9.990244-17.482927-9.990244-29.970732-24.97561-34.965853-44.956097l-154.848781-579.434147c-4.995122-19.980488-2.497561-39.960976 7.492683-57.443902 9.990244-17.482927 24.97561-29.970732 44.956098-34.965854l79.921951-22.478048c39.960976-9.990244 79.921951 12.487805 92.409756 52.44878L984.039024 774.243902c4.995122 19.980488 2.497561 39.960976-7.492683 57.443903-9.990244 17.482927-24.97561 29.970732-44.956097 34.965854l-79.921951 19.980487c-7.492683 2.497561-12.487805 4.995122-19.980488 4.995122z m-74.926829-701.814634h-7.492683l-79.921952 22.478049c-7.492683 2.497561-12.487805 4.995122-14.985365 12.487805-2.497561 4.995122-4.995122 12.487805-2.497561 19.980488L806.712195 824.195122c2.497561 7.492683 4.995122 12.487805 12.487805 14.985366 4.995122 2.497561 12.487805 4.995122 19.980488 2.497561l79.921951-19.980488c7.492683-2.497561 12.487805-4.995122 14.985366-12.487805s4.995122-12.487805 2.497561-19.980488L779.239024 209.795122c-2.497561-12.487805-12.487805-19.980488-22.478048-19.980488z" fill="#428BF9" /></svg>